<svg xmlns="http://www.w3.org/2000/svg" width="1100" height="1400" viewBox="0 0 1100 1400"><rect width="100%" height="100%" fill="#dcdad4"/><g fill="none" stroke="#101010" stroke-width="3.2"><circle cx="550" cy="700" r="8"/><circle cx="550" cy="700" r="19"/><circle cx="550" cy="700" r="30"/><circle cx="550" cy="700" r="41"/><circle cx="550" cy="700" r="52"/><circle cx="550" cy="700" r="63"/><circle cx="550" cy="700" r="74"/><circle cx="550" cy="700" r="85"/><circle cx="550" cy="700" r="96"/><circle cx="550" cy="700" r="107"/><circle cx="550" cy="700" r="118"/><circle cx="550" cy="700" r="129"/><circle cx="550" cy="700" r="140"/><circle cx="550" cy="700" r="151"/><circle cx="550" cy="700" r="162"/><circle cx="550" cy="700" r="173"/><circle cx="550" cy="700" r="184"/><circle cx="550" cy="700" r="195"/><circle cx="550" cy="700" r="206"/><circle cx="550" cy="700" r="217"/><circle cx="550" cy="700" r="228"/><circle cx="550" cy="700" r="239"/><circle cx="550" cy="700" r="250"/><circle cx="550" cy="700" r="261"/><circle cx="550" cy="700" r="272"/><circle cx="550" cy="700" r="283"/><circle cx="550" cy="700" r="294"/><circle cx="550" cy="700" r="305"/><circle cx="550" cy="700" r="316"/><circle cx="550" cy="700" r="327"/><circle cx="550" cy="700" r="338"/><circle cx="550" cy="700" r="349"/><circle cx="550" cy="700" r="360"/><circle cx="550" cy="700" r="371"/><circle cx="550" cy="700" r="382"/><circle cx="550" cy="700" r="393"/><circle cx="550" cy="700" r="404"/><circle cx="550" cy="700" r="415"/><circle cx="550" cy="700" r="426"/><circle cx="550" cy="700" r="437"/><circle cx="550" cy="700" r="448"/><circle cx="550" cy="700" r="459"/><circle cx="550" cy="700" r="470"/><circle cx="550" cy="700" r="481"/><circle cx="550" cy="700" r="492"/><circle cx="550" cy="700" r="503"/><circle cx="550" cy="700" r="514"/><circle cx="550" cy="700" r="525"/><circle cx="550" cy="700" r="536"/><circle cx="550" cy="700" r="547"/><circle cx="550" cy="700" r="558"/><circle cx="550" cy="700" r="569"/><circle cx="550" cy="700" r="580"/><circle cx="550" cy="700" r="591"/><circle cx="550" cy="700" r="602"/><circle cx="550" cy="700" r="613"/><circle cx="550" cy="700" r="624"/><circle cx="550" cy="700" r="635"/><circle cx="550" cy="700" r="646"/><circle cx="550" cy="700" r="657"/><circle cx="588.9" cy="758.2" r="8"/><circle cx="588.9" cy="758.2" r="19"/><circle cx="588.9" cy="758.2" r="30"/><circle cx="588.9" cy="758.2" r="41"/><circle cx="588.9" cy="758.2" r="52"/><circle cx="588.9" cy="758.2" r="63"/><circle cx="588.9" cy="758.2" r="74"/><circle cx="588.9" cy="758.2" r="85"/><circle cx="588.9" cy="758.2" r="96"/><circle cx="588.9" cy="758.2" r="107"/><circle cx="588.9" cy="758.2" r="118"/><circle cx="588.9" cy="758.2" r="129"/><circle cx="588.9" cy="758.2" r="140"/><circle cx="588.9" cy="758.2" r="151"/><circle cx="588.9" cy="758.2" r="162"/><circle cx="588.9" cy="758.2" r="173"/><circle cx="588.9" cy="758.2" r="184"/><circle cx="588.9" cy="758.2" r="195"/><circle cx="588.9" cy="758.2" r="206"/><circle cx="588.9" cy="758.2" r="217"/><circle cx="588.9" cy="758.2" r="228"/><circle cx="588.9" cy="758.2" r="239"/><circle cx="588.9" cy="758.2" r="250"/><circle cx="588.9" cy="758.2" r="261"/><circle cx="588.9" cy="758.2" r="272"/><circle cx="588.9" cy="758.2" r="283"/><circle cx="588.9" cy="758.2" r="294"/><circle cx="588.9" cy="758.2" r="305"/><circle cx="588.9" cy="758.2" r="316"/><circle cx="588.9" cy="758.2" r="327"/><circle cx="588.9" cy="758.2" r="338"/><circle cx="588.9" cy="758.2" r="349"/><circle cx="588.9" cy="758.2" r="360"/><circle cx="588.9" cy="758.2" r="371"/><circle cx="588.9" cy="758.2" r="382"/><circle cx="588.9" cy="758.2" r="393"/><circle cx="588.9" cy="758.2" r="404"/><circle cx="588.9" cy="758.2" r="415"/><circle cx="588.9" cy="758.2" r="426"/><circle cx="588.9" cy="758.2" r="437"/><circle cx="588.9" cy="758.2" r="448"/><circle cx="588.9" cy="758.2" r="459"/><circle cx="588.9" cy="758.2" r="470"/><circle cx="588.9" cy="758.2" r="481"/><circle cx="588.9" cy="758.2" r="492"/><circle cx="588.9" cy="758.2" r="503"/><circle cx="588.9" cy="758.2" r="514"/><circle cx="588.9" cy="758.2" r="525"/><circle cx="588.9" cy="758.2" r="536"/><circle cx="588.9" cy="758.2" r="547"/><circle cx="588.9" cy="758.2" r="558"/><circle cx="588.9" cy="758.2" r="569"/><circle cx="588.9" cy="758.2" r="580"/><circle cx="588.9" cy="758.2" r="591"/><circle cx="588.9" cy="758.2" r="602"/><circle cx="588.9" cy="758.2" r="613"/><circle cx="588.9" cy="758.2" r="624"/><circle cx="588.9" cy="758.2" r="635"/><circle cx="588.9" cy="758.2" r="646"/><circle cx="588.9" cy="758.2" r="657"/></g></svg>
